<mxfile host="app.diagrams.net" modified="2024-03-12T07:36:04.802Z" agent="Mozilla/5.0 (Windows NT 10.0; Win64; x64) AppleWebKit/537.36 (KHTML, like Gecko) Chrome/122.0.0.0 Safari/537.36 Edg/122.0.0.0" etag="29uqf_Jgi-AvJHLKCHbU" version="21.1.5" type="github">
  <diagram id="2LNsqYRfF_2a9wQbC-hy" name="第 1 页">
    <mxGraphModel dx="1386" dy="759" grid="1" gridSize="10" guides="1" tooltips="1" connect="1" arrows="1" fold="1" page="1" pageScale="1" pageWidth="827" pageHeight="1169" math="0" shadow="0">
      <root>
        <mxCell id="0" />
        <mxCell id="1" parent="0" />
        <mxCell id="ma3rFdnsJIv0rdrr-OAx-1" value="" style="group" parent="1" vertex="1" connectable="0">
          <mxGeometry x="50" y="190" width="120" height="220" as="geometry" />
        </mxCell>
        <mxCell id="uySCykuwLdHWuhwp8EWd-64" value="新增站点" style="shape=step;perimeter=stepPerimeter;whiteSpace=wrap;html=1;fixedSize=1;" parent="ma3rFdnsJIv0rdrr-OAx-1" vertex="1">
          <mxGeometry width="120" height="50" as="geometry" />
        </mxCell>
        <mxCell id="uySCykuwLdHWuhwp8EWd-66" value="字段：变电站id、变电站名称、电压等级id、电力单位名称。&lt;br&gt;&lt;br&gt;站点id：汇集端生成，生成规则：站点名+电压等级+电力公司 组合字符串的hash值。" style="rounded=0;whiteSpace=wrap;html=1;align=left;" parent="ma3rFdnsJIv0rdrr-OAx-1" vertex="1">
          <mxGeometry y="50" width="100" height="170" as="geometry" />
        </mxCell>
        <mxCell id="ma3rFdnsJIv0rdrr-OAx-2" value="" style="group;align=center;" parent="1" vertex="1" connectable="0">
          <mxGeometry x="169" y="190" width="120" height="220" as="geometry" />
        </mxCell>
        <mxCell id="uySCykuwLdHWuhwp8EWd-67" value="新增电力设备" style="shape=step;perimeter=stepPerimeter;whiteSpace=wrap;html=1;fixedSize=1;align=center;" parent="ma3rFdnsJIv0rdrr-OAx-2" vertex="1">
          <mxGeometry width="120" height="50" as="geometry" />
        </mxCell>
        <mxCell id="uySCykuwLdHWuhwp8EWd-68" value="字段：电力设备名称、电力设备id、设备类型、电压等级、变电站id、变电站名称。&lt;br&gt;&lt;br&gt;电力设备id：汇集端生成的UUID，一旦生成，不会改变。" style="rounded=0;whiteSpace=wrap;html=1;align=left;" parent="ma3rFdnsJIv0rdrr-OAx-2" vertex="1">
          <mxGeometry y="50" width="100" height="170" as="geometry" />
        </mxCell>
        <mxCell id="ma3rFdnsJIv0rdrr-OAx-3" value="" style="group" parent="1" vertex="1" connectable="0">
          <mxGeometry x="287" y="190" width="120" height="220" as="geometry" />
        </mxCell>
        <mxCell id="uySCykuwLdHWuhwp8EWd-69" value="新增辅控" style="shape=step;perimeter=stepPerimeter;whiteSpace=wrap;html=1;fixedSize=1;" parent="ma3rFdnsJIv0rdrr-OAx-3" vertex="1">
          <mxGeometry width="120" height="50" as="geometry" />
        </mxCell>
        <mxCell id="uySCykuwLdHWuhwp8EWd-70" value="字段：辅控id（monitor_id）、类型、固件版本、ip、上传间隔。&lt;br&gt;&lt;br&gt;辅控id：工作人员在汇集页面上手动配置" style="rounded=0;whiteSpace=wrap;html=1;align=left;" parent="ma3rFdnsJIv0rdrr-OAx-3" vertex="1">
          <mxGeometry y="50" width="100" height="170" as="geometry" />
        </mxCell>
        <mxCell id="ma3rFdnsJIv0rdrr-OAx-4" value="" style="group" parent="1" vertex="1" connectable="0">
          <mxGeometry x="406" y="190" width="120" height="220" as="geometry" />
        </mxCell>
        <mxCell id="uySCykuwLdHWuhwp8EWd-71" value="新增辅控和&lt;br&gt;站点关系" style="shape=step;perimeter=stepPerimeter;whiteSpace=wrap;html=1;fixedSize=1;" parent="ma3rFdnsJIv0rdrr-OAx-4" vertex="1">
          <mxGeometry width="120" height="50" as="geometry" />
        </mxCell>
        <mxCell id="uySCykuwLdHWuhwp8EWd-72" value="字段：辅控id、变电站id" style="rounded=0;whiteSpace=wrap;html=1;align=left;" parent="ma3rFdnsJIv0rdrr-OAx-4" vertex="1">
          <mxGeometry y="50" width="100" height="170" as="geometry" />
        </mxCell>
        <mxCell id="ma3rFdnsJIv0rdrr-OAx-5" value="" style="group" parent="1" vertex="1" connectable="0">
          <mxGeometry x="524" y="190" width="120" height="220" as="geometry" />
        </mxCell>
        <mxCell id="uySCykuwLdHWuhwp8EWd-73" value="新增汇集" style="shape=step;perimeter=stepPerimeter;whiteSpace=wrap;html=1;fixedSize=1;" parent="ma3rFdnsJIv0rdrr-OAx-5" vertex="1">
          <mxGeometry width="120" height="50" as="geometry" />
        </mxCell>
        <mxCell id="uySCykuwLdHWuhwp8EWd-74" value="字段：辅控id、汇集id（router_id）、汇集固件版本、汇集类型。&lt;br&gt;&lt;br&gt;汇集id：工作人员在汇集的页面上手动配置" style="rounded=0;whiteSpace=wrap;html=1;align=left;" parent="ma3rFdnsJIv0rdrr-OAx-5" vertex="1">
          <mxGeometry y="50" width="100" height="170" as="geometry" />
        </mxCell>
        <mxCell id="ma3rFdnsJIv0rdrr-OAx-6" value="" style="group" parent="1" vertex="1" connectable="0">
          <mxGeometry x="643" y="190" width="119" height="220" as="geometry" />
        </mxCell>
        <mxCell id="uySCykuwLdHWuhwp8EWd-75" value="新增传感器" style="shape=step;perimeter=stepPerimeter;whiteSpace=wrap;html=1;fixedSize=1;" parent="ma3rFdnsJIv0rdrr-OAx-6" vertex="1">
          <mxGeometry width="119" height="50" as="geometry" />
        </mxCell>
        <mxCell id="uySCykuwLdHWuhwp8EWd-76" value="字段：传感器id、传感器名称、固件版本、传感器类型、汇集id" style="rounded=0;whiteSpace=wrap;html=1;align=left;" parent="ma3rFdnsJIv0rdrr-OAx-6" vertex="1">
          <mxGeometry y="50" width="100" height="170" as="geometry" />
        </mxCell>
        <mxCell id="ma3rFdnsJIv0rdrr-OAx-7" value="" style="group" parent="1" vertex="1" connectable="0">
          <mxGeometry x="761" y="190" width="120" height="220" as="geometry" />
        </mxCell>
        <mxCell id="uySCykuwLdHWuhwp8EWd-77" value="新增辅控和&lt;br&gt;传感器关系" style="shape=step;perimeter=stepPerimeter;whiteSpace=wrap;html=1;fixedSize=1;" parent="ma3rFdnsJIv0rdrr-OAx-7" vertex="1">
          <mxGeometry width="120" height="50" as="geometry" />
        </mxCell>
        <mxCell id="uySCykuwLdHWuhwp8EWd-78" value="字段：辅控id、传感器id" style="rounded=0;whiteSpace=wrap;html=1;align=left;" parent="ma3rFdnsJIv0rdrr-OAx-7" vertex="1">
          <mxGeometry y="50" width="100" height="170" as="geometry" />
        </mxCell>
        <mxCell id="ma3rFdnsJIv0rdrr-OAx-8" value="" style="group" parent="1" vertex="1" connectable="0">
          <mxGeometry x="880" y="190" width="120" height="220" as="geometry" />
        </mxCell>
        <mxCell id="uySCykuwLdHWuhwp8EWd-79" value="新增通道" style="shape=step;perimeter=stepPerimeter;whiteSpace=wrap;html=1;fixedSize=1;" parent="ma3rFdnsJIv0rdrr-OAx-8" vertex="1">
          <mxGeometry width="120" height="50" as="geometry" />
        </mxCell>
        <mxCell id="uySCykuwLdHWuhwp8EWd-80" value="字段：通道id、通道序号、通道名称、通道类型、传感器id、是否连接、通道参数" style="rounded=0;whiteSpace=wrap;html=1;align=left;" parent="ma3rFdnsJIv0rdrr-OAx-8" vertex="1">
          <mxGeometry y="50" width="100" height="170" as="geometry" />
        </mxCell>
        <mxCell id="ma3rFdnsJIv0rdrr-OAx-9" value="" style="group" parent="1" vertex="1" connectable="0">
          <mxGeometry x="998" y="190" width="120" height="220" as="geometry" />
        </mxCell>
        <mxCell id="uySCykuwLdHWuhwp8EWd-81" value="新增测点" style="shape=step;perimeter=stepPerimeter;whiteSpace=wrap;html=1;fixedSize=1;" parent="ma3rFdnsJIv0rdrr-OAx-9" vertex="1">
          <mxGeometry width="120" height="50" as="geometry" />
        </mxCell>
        <mxCell id="uySCykuwLdHWuhwp8EWd-82" value="字段：测点id、测点名称、电力设备id。&lt;br&gt;&lt;br&gt;测点id：汇集端生成的UUID，一旦生成，不会改变" style="rounded=0;whiteSpace=wrap;html=1;align=left;" parent="ma3rFdnsJIv0rdrr-OAx-9" vertex="1">
          <mxGeometry y="50" width="100" height="170" as="geometry" />
        </mxCell>
        <mxCell id="ma3rFdnsJIv0rdrr-OAx-10" value="" style="group" parent="1" vertex="1" connectable="0">
          <mxGeometry x="1117" y="190" width="120" height="220" as="geometry" />
        </mxCell>
        <mxCell id="uySCykuwLdHWuhwp8EWd-83" value="新增通道和&lt;br&gt;测点关系" style="shape=step;perimeter=stepPerimeter;whiteSpace=wrap;html=1;fixedSize=1;" parent="ma3rFdnsJIv0rdrr-OAx-10" vertex="1">
          <mxGeometry width="120" height="50" as="geometry" />
        </mxCell>
        <mxCell id="uySCykuwLdHWuhwp8EWd-84" value="字段：测点id、传感器id、通道序号、通道类型" style="rounded=0;whiteSpace=wrap;html=1;align=left;" parent="ma3rFdnsJIv0rdrr-OAx-10" vertex="1">
          <mxGeometry y="50" width="100" height="170" as="geometry" />
        </mxCell>
        <mxCell id="ma3rFdnsJIv0rdrr-OAx-11" value="根据变电站id查重，若不存在，则新增。&lt;br&gt;&lt;br&gt;根据电力单位名称查重，若不存在，新增。" style="rounded=0;whiteSpace=wrap;html=1;align=left;" parent="1" vertex="1">
          <mxGeometry x="50" y="410" width="100" height="170" as="geometry" />
        </mxCell>
        <mxCell id="ma3rFdnsJIv0rdrr-OAx-12" value="根据变电站id、电力设备id查重，若不存在，则新增，同时新增间隔。" style="rounded=0;whiteSpace=wrap;html=1;align=left;" parent="1" vertex="1">
          <mxGeometry x="169" y="410" width="100" height="170" as="geometry" />
        </mxCell>
        <mxCell id="ma3rFdnsJIv0rdrr-OAx-13" value="根据辅控id查重，若存在，则更新辅控的固件版本、ip、上传间隔，否则新增" style="rounded=0;whiteSpace=wrap;html=1;align=left;" parent="1" vertex="1">
          <mxGeometry x="287" y="410" width="100" height="170" as="geometry" />
        </mxCell>
        <mxCell id="ma3rFdnsJIv0rdrr-OAx-14" value="根据辅控id、变电站id查重，若不存在，则新增" style="rounded=0;whiteSpace=wrap;html=1;align=left;" parent="1" vertex="1">
          <mxGeometry x="406" y="410" width="100" height="170" as="geometry" />
        </mxCell>
        <mxCell id="ma3rFdnsJIv0rdrr-OAx-15" value="" style="rounded=0;whiteSpace=wrap;html=1;align=left;" parent="1" vertex="1">
          <mxGeometry x="524" y="410" width="100" height="170" as="geometry" />
        </mxCell>
        <mxCell id="ma3rFdnsJIv0rdrr-OAx-16" value="" style="rounded=0;whiteSpace=wrap;html=1;align=left;" parent="1" vertex="1">
          <mxGeometry x="643" y="410" width="100" height="170" as="geometry" />
        </mxCell>
        <mxCell id="ma3rFdnsJIv0rdrr-OAx-17" value="" style="rounded=0;whiteSpace=wrap;html=1;align=left;" parent="1" vertex="1">
          <mxGeometry x="761" y="410" width="100" height="170" as="geometry" />
        </mxCell>
        <mxCell id="ma3rFdnsJIv0rdrr-OAx-18" value="" style="rounded=0;whiteSpace=wrap;html=1;align=left;" parent="1" vertex="1">
          <mxGeometry x="880" y="410" width="100" height="170" as="geometry" />
        </mxCell>
        <mxCell id="ma3rFdnsJIv0rdrr-OAx-19" value="" style="rounded=0;whiteSpace=wrap;html=1;align=left;" parent="1" vertex="1">
          <mxGeometry x="998" y="410" width="100" height="170" as="geometry" />
        </mxCell>
        <mxCell id="ma3rFdnsJIv0rdrr-OAx-20" value="" style="rounded=0;whiteSpace=wrap;html=1;align=left;" parent="1" vertex="1">
          <mxGeometry x="1117" y="410" width="100" height="170" as="geometry" />
        </mxCell>
      </root>
    </mxGraphModel>
  </diagram>
</mxfile>
